<svg width="103" height="22" viewBox="0 0 103 22" fill="none" xmlns="http://www.w3.org/2000/svg">
<path d="M32.556 0.479996C32.708 0.479996 32.824 0.527996 32.904 0.623996C32.992 0.711996 33.036 0.831996 33.036 0.983996V8.58C33.036 8.724 32.996 8.84 32.916 8.928C32.836 9.016 32.724 9.06 32.58 9.06C32.436 9.06 32.328 9.016 32.256 8.928C32.184 8.84 32.148 8.724 32.148 8.58V2.448L29.544 7.44C29.432 7.672 29.268 7.788 29.052 7.788C28.844 7.788 28.68 7.672 28.56 7.44L25.944 2.508V8.58C25.944 8.724 25.904 8.84 25.824 8.928C25.752 9.016 25.644 9.06 25.5 9.06C25.356 9.06 25.244 9.016 25.164 8.928C25.084 8.84 25.044 8.724 25.044 8.58V0.983996C25.044 0.831996 25.088 0.711996 25.176 0.623996C25.264 0.527996 25.384 0.479996 25.536 0.479996C25.736 0.479996 25.896 0.595996 26.016 0.827996L29.064 6.672L32.076 0.827996C32.14 0.699996 32.208 0.611996 32.28 0.563996C32.36 0.507996 32.452 0.479996 32.556 0.479996Z" fill="white"/>
<path d="M37.1738 9.084C36.6218 9.084 36.1338 8.96 35.7098 8.712C35.2938 8.464 34.9698 8.112 34.7378 7.656C34.5138 7.192 34.4018 6.656 34.4018 6.048C34.4018 5.44 34.5138 4.908 34.7378 4.452C34.9698 3.988 35.2938 3.632 35.7098 3.384C36.1338 3.136 36.6218 3.012 37.1738 3.012C37.7258 3.012 38.2138 3.136 38.6378 3.384C39.0618 3.632 39.3858 3.988 39.6098 4.452C39.8418 4.908 39.9578 5.44 39.9578 6.048C39.9578 6.656 39.8418 7.192 39.6098 7.656C39.3858 8.112 39.0618 8.464 38.6378 8.712C38.2138 8.96 37.7258 9.084 37.1738 9.084ZM37.1738 8.28C37.7498 8.28 38.1898 8.092 38.4938 7.716C38.8058 7.332 38.9618 6.776 38.9618 6.048C38.9618 5.336 38.8058 4.788 38.4938 4.404C38.1818 4.012 37.7418 3.816 37.1738 3.816C36.6058 3.816 36.1658 4.012 35.8538 4.404C35.5418 4.788 35.3858 5.336 35.3858 6.048C35.3858 6.768 35.5378 7.32 35.8418 7.704C36.1538 8.088 36.5978 8.28 37.1738 8.28Z" fill="white"/>
<path d="M44.1061 3.012C44.6181 3.012 45.0701 3.136 45.4621 3.384C45.8541 3.632 46.1581 3.984 46.3741 4.44C46.5901 4.896 46.6981 5.424 46.6981 6.024C46.6981 6.632 46.5901 7.168 46.3741 7.632C46.1581 8.088 45.8541 8.444 45.4621 8.7C45.0701 8.956 44.6181 9.084 44.1061 9.084C43.6501 9.084 43.2501 8.984 42.9061 8.784C42.5701 8.584 42.3141 8.3 42.1381 7.932V8.58C42.1381 8.724 42.0941 8.84 42.0061 8.928C41.9261 9.016 41.8101 9.06 41.6581 9.06C41.5061 9.06 41.3861 9.016 41.2981 8.928C41.2101 8.84 41.1661 8.724 41.1661 8.58V0.947996C41.1661 0.811996 41.2101 0.699996 41.2981 0.611995C41.3861 0.523996 41.5061 0.479996 41.6581 0.479996C41.8101 0.479996 41.9261 0.523996 42.0061 0.611995C42.0941 0.691996 42.1381 0.803996 42.1381 0.947996V4.164C42.3141 3.796 42.5701 3.512 42.9061 3.312C43.2501 3.112 43.6501 3.012 44.1061 3.012ZM43.9141 8.28C44.4821 8.28 44.9221 8.084 45.2341 7.692C45.5461 7.292 45.7021 6.736 45.7021 6.024C45.7021 5.328 45.5461 4.788 45.2341 4.404C44.9221 4.02 44.4821 3.828 43.9141 3.828C43.3461 3.828 42.9061 4.02 42.5941 4.404C42.2901 4.788 42.1381 5.336 42.1381 6.048C42.1381 6.76 42.2901 7.312 42.5941 7.704C42.9061 8.088 43.3461 8.28 43.9141 8.28Z" fill="white"/>
<path d="M48.4025 9.06C48.2585 9.06 48.1385 9.02 48.0425 8.94C47.9545 8.852 47.9105 8.732 47.9105 8.58V3.516C47.9105 3.364 47.9545 3.248 48.0425 3.168C48.1385 3.08 48.2585 3.036 48.4025 3.036C48.5465 3.036 48.6625 3.08 48.7505 3.168C48.8385 3.248 48.8825 3.364 48.8825 3.516V8.58C48.8825 8.74 48.8385 8.86 48.7505 8.94C48.6625 9.02 48.5465 9.06 48.4025 9.06ZM48.4025 1.776C48.2105 1.776 48.0545 1.72 47.9345 1.608C47.8145 1.496 47.7545 1.348 47.7545 1.164C47.7545 0.987996 47.8145 0.843996 47.9345 0.731996C48.0545 0.619996 48.2105 0.563996 48.4025 0.563996C48.5945 0.563996 48.7505 0.619996 48.8705 0.731996C48.9905 0.843996 49.0505 0.987996 49.0505 1.164C49.0505 1.348 48.9905 1.496 48.8705 1.608C48.7505 1.72 48.5945 1.776 48.4025 1.776Z" fill="white"/>
<path d="M50.9515 9.06C50.8075 9.06 50.6875 9.02 50.5915 8.94C50.5035 8.852 50.4595 8.732 50.4595 8.58V0.959996C50.4595 0.807996 50.5035 0.691996 50.5915 0.611995C50.6875 0.523996 50.8075 0.479996 50.9515 0.479996C51.0875 0.479996 51.1995 0.523996 51.2875 0.611995C51.3835 0.691996 51.4315 0.807996 51.4315 0.959996V8.58C51.4315 8.732 51.3835 8.852 51.2875 8.94C51.1995 9.02 51.0875 9.06 50.9515 9.06Z" fill="white"/>
<path d="M57.5326 7.644C57.6206 7.644 57.6966 7.68 57.7606 7.752C57.8246 7.824 57.8566 7.916 57.8566 8.028C57.8566 8.228 57.7166 8.412 57.4366 8.58C57.1486 8.748 56.8446 8.876 56.5246 8.964C56.2046 9.044 55.8926 9.084 55.5886 9.084C54.6846 9.084 53.9686 8.816 53.4406 8.28C52.9206 7.744 52.6606 7.004 52.6606 6.06C52.6606 5.46 52.7766 4.932 53.0086 4.476C53.2406 4.012 53.5646 3.652 53.9806 3.396C54.4046 3.14 54.8846 3.012 55.4206 3.012C56.1806 3.012 56.7846 3.26 57.2326 3.756C57.6806 4.252 57.9046 4.924 57.9046 5.772C57.9046 5.932 57.8726 6.048 57.8086 6.12C57.7446 6.192 57.6406 6.228 57.4966 6.228H53.6326C53.7046 7.604 54.3566 8.292 55.5886 8.292C55.9006 8.292 56.1686 8.252 56.3926 8.172C56.6166 8.084 56.8566 7.968 57.1126 7.824C57.3206 7.704 57.4606 7.644 57.5326 7.644ZM55.4326 3.768C54.9206 3.768 54.5086 3.928 54.1966 4.248C53.8926 4.568 53.7126 5.02 53.6566 5.604H57.0526C57.0366 5.012 56.8886 4.56 56.6086 4.248C56.3286 3.928 55.9366 3.768 55.4326 3.768Z" fill="white"/>
<path d="M66.8945 4.656C67.3825 4.784 67.7585 5.024 68.0225 5.376C68.2945 5.728 68.4305 6.168 68.4305 6.696C68.4305 7.44 68.1865 8.012 67.6985 8.412C67.2105 8.804 66.5185 9 65.6225 9H62.5985C62.4465 9 62.3225 8.956 62.2265 8.868C62.1385 8.78 62.0945 8.664 62.0945 8.52V1.02C62.0945 0.875996 62.1385 0.759996 62.2265 0.671996C62.3225 0.583996 62.4465 0.539996 62.5985 0.539996H65.4905C66.3625 0.539996 67.0385 0.731996 67.5185 1.116C67.9985 1.5 68.2385 2.044 68.2385 2.748C68.2385 3.204 68.1185 3.596 67.8785 3.924C67.6465 4.252 67.3185 4.496 66.8945 4.656ZM63.0665 4.296H65.3465C65.9785 4.296 66.4545 4.168 66.7745 3.912C67.1025 3.656 67.2665 3.284 67.2665 2.796C67.2665 1.836 66.6265 1.356 65.3465 1.356H63.0665V4.296ZM65.5265 8.184C66.1905 8.184 66.6785 8.064 66.9905 7.824C67.3105 7.576 67.4705 7.192 67.4705 6.672C67.4705 5.632 66.8225 5.112 65.5265 5.112H63.0665V8.184H65.5265Z" fill="white"/>
<path d="M72.1844 3.012C73.6484 3.012 74.3804 3.78 74.3804 5.316V8.58C74.3804 8.724 74.3364 8.84 74.2484 8.928C74.1684 9.016 74.0564 9.06 73.9124 9.06C73.7684 9.06 73.6524 9.016 73.5644 8.928C73.4764 8.84 73.4324 8.724 73.4324 8.58V8.004C73.2804 8.348 73.0484 8.616 72.7364 8.808C72.4244 8.992 72.0644 9.084 71.6564 9.084C71.2804 9.084 70.9324 9.008 70.6124 8.856C70.3004 8.704 70.0524 8.492 69.8684 8.22C69.6844 7.948 69.5924 7.648 69.5924 7.32C69.5924 6.88 69.7044 6.54 69.9284 6.3C70.1524 6.052 70.5204 5.876 71.0324 5.772C71.5444 5.66 72.2564 5.604 73.1684 5.604H73.4324V5.208C73.4324 4.728 73.3324 4.376 73.1324 4.152C72.9404 3.928 72.6244 3.816 72.1844 3.816C71.6404 3.816 71.0884 3.964 70.5284 4.26C70.3124 4.396 70.1604 4.464 70.0724 4.464C69.9764 4.464 69.8964 4.428 69.8324 4.356C69.7684 4.284 69.7364 4.192 69.7364 4.08C69.7364 3.968 69.7684 3.872 69.8324 3.792C69.9044 3.704 70.0164 3.616 70.1684 3.528C70.4484 3.368 70.7644 3.244 71.1164 3.156C71.4764 3.06 71.8324 3.012 72.1844 3.012ZM71.7884 8.316C72.2684 8.316 72.6604 8.156 72.9644 7.836C73.2764 7.508 73.4324 7.088 73.4324 6.576V6.228H73.2164C72.5124 6.228 71.9764 6.26 71.6084 6.324C71.2404 6.38 70.9764 6.48 70.8164 6.624C70.6644 6.76 70.5884 6.964 70.5884 7.236C70.5884 7.548 70.7004 7.808 70.9244 8.016C71.1564 8.216 71.4444 8.316 71.7884 8.316Z" fill="white"/>
<path d="M78.8597 3.012C80.2597 3.012 80.9597 3.784 80.9597 5.328V8.58C80.9597 8.732 80.9157 8.852 80.8277 8.94C80.7477 9.02 80.6317 9.06 80.4797 9.06C80.3277 9.06 80.2077 9.02 80.1197 8.94C80.0317 8.852 79.9877 8.732 79.9877 8.58V5.388C79.9877 4.844 79.8797 4.448 79.6637 4.2C79.4557 3.952 79.1197 3.828 78.6557 3.828C78.1197 3.828 77.6917 3.992 77.3717 4.32C77.0517 4.648 76.8917 5.092 76.8917 5.652V8.58C76.8917 8.732 76.8477 8.852 76.7597 8.94C76.6797 9.02 76.5637 9.06 76.4117 9.06C76.2597 9.06 76.1397 9.02 76.0517 8.94C75.9637 8.852 75.9197 8.732 75.9197 8.58V3.516C75.9197 3.372 75.9637 3.256 76.0517 3.168C76.1397 3.08 76.2597 3.036 76.4117 3.036C76.5557 3.036 76.6677 3.08 76.7477 3.168C76.8357 3.256 76.8797 3.368 76.8797 3.504V4.116C77.0717 3.756 77.3397 3.484 77.6837 3.3C78.0277 3.108 78.4197 3.012 78.8597 3.012Z" fill="white"/>
<path d="M87.168 8.232C87.296 8.352 87.36 8.48 87.36 8.616C87.36 8.736 87.316 8.84 87.228 8.928C87.148 9.016 87.048 9.06 86.928 9.06C86.824 9.06 86.716 9.012 86.604 8.916L83.472 6.216V8.58C83.472 8.732 83.424 8.852 83.328 8.94C83.24 9.02 83.128 9.06 82.992 9.06C82.848 9.06 82.728 9.02 82.632 8.94C82.544 8.852 82.5 8.732 82.5 8.58V0.959996C82.5 0.807996 82.544 0.691996 82.632 0.611995C82.728 0.523996 82.848 0.479996 82.992 0.479996C83.128 0.479996 83.24 0.523996 83.328 0.611995C83.424 0.691996 83.472 0.807996 83.472 0.959996V5.832L86.34 3.204C86.436 3.108 86.544 3.06 86.664 3.06C86.784 3.06 86.888 3.104 86.976 3.192C87.064 3.28 87.108 3.384 87.108 3.504C87.108 3.64 87.052 3.76 86.94 3.864L84.576 5.976L87.168 8.232Z" fill="white"/>
<path d="M88.752 9.06C88.608 9.06 88.488 9.02 88.392 8.94C88.304 8.852 88.26 8.732 88.26 8.58V3.516C88.26 3.364 88.304 3.248 88.392 3.168C88.488 3.08 88.608 3.036 88.752 3.036C88.896 3.036 89.012 3.08 89.1 3.168C89.188 3.248 89.232 3.364 89.232 3.516V8.58C89.232 8.74 89.188 8.86 89.1 8.94C89.012 9.02 88.896 9.06 88.752 9.06ZM88.752 1.776C88.56 1.776 88.404 1.72 88.284 1.608C88.164 1.496 88.104 1.348 88.104 1.164C88.104 0.987996 88.164 0.843996 88.284 0.731996C88.404 0.619996 88.56 0.563996 88.752 0.563996C88.944 0.563996 89.1 0.619996 89.22 0.731996C89.34 0.843996 89.4 0.987996 89.4 1.164C89.4 1.348 89.34 1.496 89.22 1.608C89.1 1.72 88.944 1.776 88.752 1.776Z" fill="white"/>
<path d="M93.7491 3.012C95.1491 3.012 95.8491 3.784 95.8491 5.328V8.58C95.8491 8.732 95.8051 8.852 95.7171 8.94C95.6371 9.02 95.5211 9.06 95.3691 9.06C95.2171 9.06 95.0971 9.02 95.0091 8.94C94.9211 8.852 94.8771 8.732 94.8771 8.58V5.388C94.8771 4.844 94.7691 4.448 94.5531 4.2C94.3451 3.952 94.0091 3.828 93.5451 3.828C93.0091 3.828 92.5811 3.992 92.2611 4.32C91.9411 4.648 91.7811 5.092 91.7811 5.652V8.58C91.7811 8.732 91.7371 8.852 91.6491 8.94C91.5691 9.02 91.4531 9.06 91.3011 9.06C91.1491 9.06 91.0291 9.02 90.9411 8.94C90.8531 8.852 90.8091 8.732 90.8091 8.58V3.516C90.8091 3.372 90.8531 3.256 90.9411 3.168C91.0291 3.08 91.1491 3.036 91.3011 3.036C91.4451 3.036 91.5571 3.08 91.6371 3.168C91.7251 3.256 91.7691 3.368 91.7691 3.504V4.116C91.9611 3.756 92.2291 3.484 92.5731 3.3C92.9171 3.108 93.3091 3.012 93.7491 3.012Z" fill="white"/>
<path d="M102.129 3.036C102.281 3.036 102.401 3.08 102.489 3.168C102.577 3.256 102.621 3.372 102.621 3.516V8.604C102.621 9.476 102.397 10.132 101.949 10.572C101.501 11.02 100.837 11.244 99.9574 11.244C99.1014 11.244 98.3894 11.076 97.8214 10.74C97.5334 10.58 97.3894 10.396 97.3894 10.188C97.3894 10.076 97.4174 9.984 97.4734 9.912C97.5374 9.84 97.6174 9.804 97.7134 9.804C97.7934 9.804 97.9374 9.86 98.1454 9.972C98.4254 10.116 98.7014 10.232 98.9734 10.32C99.2454 10.408 99.5694 10.452 99.9454 10.452C100.513 10.452 100.941 10.3 101.229 9.996C101.517 9.7 101.661 9.264 101.661 8.688V7.656C101.493 8.032 101.233 8.32 100.881 8.52C100.537 8.72 100.129 8.82 99.6574 8.82C99.1454 8.82 98.6894 8.7 98.2894 8.46C97.8974 8.22 97.5894 7.88 97.3654 7.44C97.1494 7 97.0414 6.492 97.0414 5.916C97.0414 5.34 97.1494 4.832 97.3654 4.392C97.5894 3.952 97.8974 3.612 98.2894 3.372C98.6894 3.132 99.1454 3.012 99.6574 3.012C100.121 3.012 100.525 3.112 100.869 3.312C101.213 3.512 101.473 3.796 101.649 4.164V3.516C101.649 3.372 101.689 3.256 101.769 3.168C101.857 3.08 101.977 3.036 102.129 3.036ZM99.8494 8.016C100.409 8.016 100.849 7.832 101.169 7.464C101.489 7.088 101.649 6.572 101.649 5.916C101.649 5.268 101.489 4.76 101.169 4.392C100.857 4.016 100.417 3.828 99.8494 3.828C99.2814 3.828 98.8334 4.016 98.5054 4.392C98.1854 4.76 98.0254 5.268 98.0254 5.916C98.0254 6.572 98.1854 7.088 98.5054 7.464C98.8334 7.832 99.2814 8.016 99.8494 8.016Z" fill="white"/>
<path d="M32.112 20.76C32.128 20.808 32.136 20.84 32.136 20.856C32.136 20.92 32.112 20.968 32.064 21C32.024 21.04 31.972 21.06 31.908 21.06C31.788 21.06 31.704 21.004 31.656 20.892L30.684 18.66H25.896L24.912 20.892C24.864 21.004 24.784 21.06 24.672 21.06C24.584 21.06 24.516 21.032 24.468 20.976C24.42 20.92 24.412 20.848 24.444 20.76L27.996 12.66C28.044 12.532 28.14 12.468 28.284 12.468C28.348 12.468 28.404 12.488 28.452 12.528C28.508 12.56 28.548 12.604 28.572 12.66L32.112 20.76ZM26.1 18.18H30.468L28.284 13.188L26.1 18.18Z" fill="white"/>
<path d="M34.3304 21.06C34.2504 21.06 34.1864 21.036 34.1384 20.988C34.0984 20.94 34.0784 20.872 34.0784 20.784V12.804C34.0784 12.732 34.1064 12.672 34.1624 12.624C34.2264 12.568 34.2984 12.54 34.3784 12.54H37.1264C37.9984 12.54 38.6744 12.748 39.1544 13.164C39.6344 13.58 39.8744 14.172 39.8744 14.94C39.8744 15.708 39.6304 16.304 39.1424 16.728C38.6624 17.152 37.9904 17.364 37.1264 17.364H34.5704V20.784C34.5704 20.872 34.5504 20.94 34.5104 20.988C34.4704 21.036 34.4104 21.06 34.3304 21.06ZM37.1144 16.884C37.8584 16.884 38.4144 16.72 38.7824 16.392C39.1584 16.064 39.3464 15.58 39.3464 14.94C39.3464 14.3 39.1584 13.82 38.7824 13.5C38.4144 13.172 37.8584 13.008 37.1144 13.008H34.5704V16.884H37.1144Z" fill="white"/>
<path d="M42.2724 21.06C42.1924 21.06 42.1284 21.036 42.0804 20.988C42.0404 20.94 42.0204 20.872 42.0204 20.784V12.804C42.0204 12.732 42.0484 12.672 42.1044 12.624C42.1684 12.568 42.2404 12.54 42.3204 12.54H45.0684C45.9404 12.54 46.6164 12.748 47.0964 13.164C47.5764 13.58 47.8164 14.172 47.8164 14.94C47.8164 15.708 47.5724 16.304 47.0844 16.728C46.6044 17.152 45.9324 17.364 45.0684 17.364H42.5124V20.784C42.5124 20.872 42.4924 20.94 42.4524 20.988C42.4124 21.036 42.3524 21.06 42.2724 21.06ZM45.0564 16.884C45.8004 16.884 46.3564 16.72 46.7244 16.392C47.1004 16.064 47.2884 15.58 47.2884 14.94C47.2884 14.3 47.1004 13.82 46.7244 13.5C46.3564 13.172 45.8004 13.008 45.0564 13.008H42.5124V16.884H45.0564Z" fill="white"/>
<path d="M50.2265 21C50.1625 21 50.1025 20.976 50.0465 20.928C49.9905 20.88 49.9625 20.828 49.9625 20.772V12.756C49.9625 12.676 49.9825 12.612 50.0225 12.564C50.0705 12.508 50.1345 12.48 50.2145 12.48C50.3745 12.48 50.4545 12.572 50.4545 12.756V20.544H54.7865C54.8425 20.544 54.8905 20.564 54.9305 20.604C54.9785 20.644 55.0025 20.7 55.0025 20.772C55.0025 20.836 54.9785 20.892 54.9305 20.94C54.8905 20.98 54.8425 21 54.7865 21H50.2265Z" fill="white"/>
<path d="M56.9026 21.06C56.8226 21.06 56.7586 21.036 56.7106 20.988C56.6706 20.932 56.6506 20.864 56.6506 20.784V12.756C56.6506 12.676 56.6706 12.612 56.7106 12.564C56.7586 12.508 56.8226 12.48 56.9026 12.48C56.9746 12.48 57.0306 12.508 57.0706 12.564C57.1186 12.612 57.1426 12.676 57.1426 12.756V20.784C57.1426 20.864 57.1186 20.932 57.0706 20.988C57.0306 21.036 56.9746 21.06 56.9026 21.06Z" fill="white"/>
<path d="M63.2434 21.096C62.4674 21.096 61.7954 20.924 61.2274 20.58C60.6594 20.228 60.2234 19.728 59.9194 19.08C59.6154 18.424 59.4634 17.652 59.4634 16.764C59.4634 15.876 59.6154 15.108 59.9194 14.46C60.2234 13.812 60.6594 13.316 61.2274 12.972C61.7954 12.62 62.4674 12.444 63.2434 12.444C63.7794 12.444 64.2914 12.54 64.7794 12.732C65.2754 12.924 65.6874 13.188 66.0154 13.524C66.0954 13.604 66.1354 13.7 66.1354 13.812C66.1354 13.876 66.1194 13.932 66.0874 13.98C66.0554 14.02 66.0154 14.04 65.9674 14.04C65.9034 14.04 65.8354 14.008 65.7634 13.944C65.3074 13.56 64.8914 13.296 64.5154 13.152C64.1474 13.008 63.7154 12.936 63.2194 12.936C62.2034 12.936 61.4114 13.272 60.8434 13.944C60.2834 14.616 60.0034 15.556 60.0034 16.764C60.0034 17.98 60.2834 18.924 60.8434 19.596C61.4034 20.268 62.1954 20.604 63.2194 20.604C63.7234 20.604 64.1594 20.532 64.5274 20.388C64.8954 20.244 65.3074 19.98 65.7634 19.596C65.8514 19.532 65.9194 19.5 65.9674 19.5C66.0154 19.5 66.0554 19.524 66.0874 19.572C66.1194 19.612 66.1354 19.664 66.1354 19.728C66.1354 19.84 66.0954 19.936 66.0154 20.016C65.6874 20.352 65.2754 20.616 64.7794 20.808C64.2914 21 63.7794 21.096 63.2434 21.096Z" fill="white"/>
<path d="M74.9947 20.76C75.0107 20.808 75.0186 20.84 75.0186 20.856C75.0186 20.92 74.9946 20.968 74.9466 21C74.9066 21.04 74.8547 21.06 74.7906 21.06C74.6706 21.06 74.5867 21.004 74.5387 20.892L73.5667 18.66H68.7786L67.7946 20.892C67.7467 21.004 67.6666 21.06 67.5546 21.06C67.4667 21.06 67.3986 21.032 67.3506 20.976C67.3027 20.92 67.2946 20.848 67.3266 20.76L70.8786 12.66C70.9266 12.532 71.0227 12.468 71.1666 12.468C71.2307 12.468 71.2867 12.488 71.3346 12.528C71.3906 12.56 71.4306 12.604 71.4547 12.66L74.9947 20.76ZM68.9827 18.18H73.3506L71.1666 13.188L68.9827 18.18Z" fill="white"/>
<path d="M78.3638 21.06C78.2838 21.06 78.2198 21.036 78.1718 20.988C78.1318 20.932 78.1118 20.864 78.1118 20.784V12.996H75.1718C75.1078 12.996 75.0558 12.976 75.0158 12.936C74.9758 12.896 74.9558 12.84 74.9558 12.768C74.9558 12.704 74.9758 12.652 75.0158 12.612C75.0558 12.564 75.1078 12.54 75.1718 12.54H81.5438C81.5998 12.54 81.6518 12.564 81.6998 12.612C81.7478 12.652 81.7718 12.704 81.7718 12.768C81.7718 12.84 81.7478 12.896 81.6998 12.936C81.6518 12.976 81.5998 12.996 81.5438 12.996H78.6158V20.784C78.6158 20.864 78.5918 20.932 78.5438 20.988C78.5038 21.036 78.4438 21.06 78.3638 21.06Z" fill="white"/>
<path d="M83.6316 21.06C83.5516 21.06 83.4876 21.036 83.4397 20.988C83.3997 20.932 83.3796 20.864 83.3796 20.784V12.756C83.3796 12.676 83.3997 12.612 83.4397 12.564C83.4876 12.508 83.5516 12.48 83.6316 12.48C83.7036 12.48 83.7597 12.508 83.7997 12.564C83.8476 12.612 83.8717 12.676 83.8717 12.756V20.784C83.8717 20.864 83.8476 20.932 83.7997 20.988C83.7597 21.036 83.7036 21.06 83.6316 21.06Z" fill="white"/>
<path d="M89.8884 21.096C89.1364 21.096 88.4804 20.924 87.9204 20.58C87.3684 20.228 86.9404 19.728 86.6364 19.08C86.3404 18.424 86.1924 17.656 86.1924 16.776C86.1924 15.888 86.3404 15.12 86.6364 14.472C86.9324 13.816 87.3564 13.316 87.9084 12.972C88.4684 12.62 89.1284 12.444 89.8884 12.444C90.6484 12.444 91.3084 12.62 91.8684 12.972C92.4284 13.316 92.8564 13.812 93.1524 14.46C93.4484 15.108 93.5964 15.876 93.5964 16.764C93.5964 17.652 93.4444 18.424 93.1404 19.08C92.8444 19.728 92.4164 20.228 91.8564 20.58C91.3044 20.924 90.6484 21.096 89.8884 21.096ZM89.8884 20.604C90.8964 20.604 91.6764 20.268 92.2284 19.596C92.7804 18.924 93.0564 17.98 93.0564 16.764C93.0564 15.548 92.7804 14.608 92.2284 13.944C91.6844 13.272 90.9044 12.936 89.8884 12.936C88.8884 12.936 88.1124 13.272 87.5604 13.944C87.0084 14.608 86.7324 15.548 86.7324 16.764C86.7324 17.98 87.0084 18.924 87.5604 19.596C88.1124 20.268 88.8884 20.604 89.8884 20.604Z" fill="white"/>
<path d="M102.164 12.48C102.316 12.48 102.392 12.572 102.392 12.756V20.784C102.392 20.864 102.368 20.932 102.32 20.988C102.28 21.036 102.22 21.06 102.14 21.06C102.084 21.06 102.04 21.048 102.008 21.024C101.976 21 101.94 20.96 101.9 20.904L96.3801 13.392V20.784C96.3801 20.864 96.3561 20.932 96.3081 20.988C96.2681 21.036 96.2121 21.06 96.1401 21.06C95.9881 21.06 95.9121 20.968 95.9121 20.784V12.756C95.9121 12.676 95.9321 12.612 95.9721 12.564C96.0201 12.508 96.0882 12.48 96.1761 12.48C96.2321 12.48 96.2721 12.492 96.2961 12.516C96.3281 12.532 96.3681 12.568 96.4161 12.624L101.924 20.136V12.756C101.924 12.676 101.944 12.612 101.984 12.564C102.032 12.508 102.092 12.48 102.164 12.48Z" fill="white"/>
<path d="M12.5953 1.62663L0.744737 9.82762C0.0877447 10.2823 -0.0692318 11.1903 0.391808 11.8565L6.51581 20.7058C6.97685 21.372 7.88193 21.545 8.53893 21.0904L20.3895 12.8894C21.0465 12.4347 21.2035 11.5267 20.7424 10.8605L14.6184 2.0112C14.1574 1.34499 13.2523 1.17197 12.5953 1.62663ZM1.72802 10.9318L13.2822 2.93591C13.3637 2.8795 13.4774 2.90123 13.5348 2.98419L14.2655 4.04007L2.41492 12.2411L1.68422 11.1852C1.6268 11.1022 1.64652 10.9882 1.72802 10.9318ZM19.4062 11.7852L7.85203 19.7811C7.77052 19.8375 7.65686 19.8158 7.59945 19.7328L4.64183 15.459L16.4924 7.258L19.45 11.5318C19.5074 11.6148 19.4877 11.7288 19.4062 11.7852ZM9.51824 14.91L10.2142 15.9156C10.329 16.0815 10.2896 16.3096 10.1265 16.4224L8.34821 17.6531C8.1852 17.7659 7.95788 17.7224 7.84305 17.5565L7.14714 16.5509C7.03232 16.385 7.07174 16.1569 7.23476 16.0441L9.01308 14.8134C9.1761 14.7006 9.40342 14.7441 9.51824 14.91ZM14.2604 11.6283L14.9564 12.6339C15.0712 12.7998 15.0318 13.0278 14.8687 13.1406L11.5097 15.4652C11.3467 15.578 11.1193 15.5346 11.0045 15.3687L10.3086 14.3631C10.1938 14.1971 10.2332 13.9691 10.3962 13.8563L13.7553 11.5317C13.9183 11.4189 14.1456 11.4623 14.2604 11.6283Z" fill="white"/>
</svg>
