<svg width="106" height="24" viewBox="0 0 106 24" fill="none" xmlns="http://www.w3.org/2000/svg">
<path d="M9.269 3.77C9.43367 3.77 9.55933 3.822 9.646 3.926C9.74133 4.02133 9.789 4.15133 9.789 4.316V12.545C9.789 12.701 9.74567 12.8267 9.659 12.922C9.57233 13.0173 9.451 13.065 9.295 13.065C9.139 13.065 9.022 13.0173 8.944 12.922C8.866 12.8267 8.827 12.701 8.827 12.545V5.902L6.006 11.31C5.88467 11.5613 5.707 11.687 5.473 11.687C5.24767 11.687 5.07 11.5613 4.94 11.31L2.106 5.967V12.545C2.106 12.701 2.06267 12.8267 1.976 12.922C1.898 13.0173 1.781 13.065 1.625 13.065C1.469 13.065 1.34767 13.0173 1.261 12.922C1.17433 12.8267 1.131 12.701 1.131 12.545V4.316C1.131 4.15133 1.17867 4.02133 1.274 3.926C1.36933 3.822 1.49933 3.77 1.664 3.77C1.88067 3.77 2.054 3.89567 2.184 4.147L5.486 10.478L8.749 4.147C8.81833 4.00833 8.892 3.913 8.97 3.861C9.05667 3.80033 9.15633 3.77 9.269 3.77ZM14.5317 13.091C13.9337 13.091 13.405 12.9567 12.9457 12.688C12.495 12.4193 12.144 12.038 11.8927 11.544C11.65 11.0413 11.5287 10.4607 11.5287 9.802C11.5287 9.14333 11.65 8.567 11.8927 8.073C12.144 7.57033 12.495 7.18467 12.9457 6.916C13.405 6.64733 13.9337 6.513 14.5317 6.513C15.1297 6.513 15.6583 6.64733 16.1177 6.916C16.577 7.18467 16.928 7.57033 17.1707 8.073C17.422 8.567 17.5477 9.14333 17.5477 9.802C17.5477 10.4607 17.422 11.0413 17.1707 11.544C16.928 12.038 16.577 12.4193 16.1177 12.688C15.6583 12.9567 15.1297 13.091 14.5317 13.091ZM14.5317 12.22C15.1557 12.22 15.6323 12.0163 15.9617 11.609C16.2997 11.193 16.4687 10.5907 16.4687 9.802C16.4687 9.03067 16.2997 8.437 15.9617 8.021C15.6237 7.59633 15.147 7.384 14.5317 7.384C13.9163 7.384 13.4397 7.59633 13.1017 8.021C12.7637 8.437 12.5947 9.03067 12.5947 9.802C12.5947 10.582 12.7593 11.18 13.0887 11.596C13.4267 12.012 13.9077 12.22 14.5317 12.22ZM22.3016 6.513C22.8563 6.513 23.3459 6.64733 23.7706 6.916C24.1953 7.18467 24.5246 7.566 24.7586 8.06C24.9926 8.554 25.1096 9.126 25.1096 9.776C25.1096 10.4347 24.9926 11.0153 24.7586 11.518C24.5246 12.012 24.1953 12.3977 23.7706 12.675C23.3459 12.9523 22.8563 13.091 22.3016 13.091C21.8076 13.091 21.3743 12.9827 21.0016 12.766C20.6376 12.5493 20.3603 12.2417 20.1696 11.843V12.545C20.1696 12.701 20.1219 12.8267 20.0266 12.922C19.9399 13.0173 19.8143 13.065 19.6496 13.065C19.4849 13.065 19.3549 13.0173 19.2596 12.922C19.1643 12.8267 19.1166 12.701 19.1166 12.545V4.277C19.1166 4.12967 19.1643 4.00833 19.2596 3.913C19.3549 3.81767 19.4849 3.77 19.6496 3.77C19.8143 3.77 19.9399 3.81767 20.0266 3.913C20.1219 3.99967 20.1696 4.121 20.1696 4.277V7.761C20.3603 7.36233 20.6376 7.05467 21.0016 6.838C21.3743 6.62133 21.8076 6.513 22.3016 6.513ZM22.0936 12.22C22.7089 12.22 23.1856 12.0077 23.5236 11.583C23.8616 11.1497 24.0306 10.5473 24.0306 9.776C24.0306 9.022 23.8616 8.437 23.5236 8.021C23.1856 7.605 22.7089 7.397 22.0936 7.397C21.4783 7.397 21.0016 7.605 20.6636 8.021C20.3343 8.437 20.1696 9.03067 20.1696 9.802C20.1696 10.5733 20.3343 11.1713 20.6636 11.596C21.0016 12.012 21.4783 12.22 22.0936 12.22ZM27.216 13.065C27.06 13.065 26.93 13.0217 26.826 12.935C26.7307 12.8397 26.683 12.7097 26.683 12.545V7.059C26.683 6.89433 26.7307 6.76867 26.826 6.682C26.93 6.58667 27.06 6.539 27.216 6.539C27.372 6.539 27.4977 6.58667 27.593 6.682C27.6883 6.76867 27.736 6.89433 27.736 7.059V12.545C27.736 12.7183 27.6883 12.8483 27.593 12.935C27.4977 13.0217 27.372 13.065 27.216 13.065ZM27.216 5.174C27.008 5.174 26.839 5.11333 26.709 4.992C26.579 4.87067 26.514 4.71033 26.514 4.511C26.514 4.32033 26.579 4.16433 26.709 4.043C26.839 3.92167 27.008 3.861 27.216 3.861C27.424 3.861 27.593 3.92167 27.723 4.043C27.853 4.16433 27.918 4.32033 27.918 4.511C27.918 4.71033 27.853 4.87067 27.723 4.992C27.593 5.11333 27.424 5.174 27.216 5.174ZM30.2375 13.065C30.0815 13.065 29.9515 13.0217 29.8475 12.935C29.7522 12.8397 29.7045 12.7097 29.7045 12.545V4.29C29.7045 4.12533 29.7522 3.99967 29.8475 3.913C29.9515 3.81767 30.0815 3.77 30.2375 3.77C30.3848 3.77 30.5062 3.81767 30.6015 3.913C30.7055 3.99967 30.7575 4.12533 30.7575 4.29V12.545C30.7575 12.7097 30.7055 12.8397 30.6015 12.935C30.5062 13.0217 30.3848 13.065 30.2375 13.065ZM37.627 11.531C37.7223 11.531 37.8046 11.57 37.874 11.648C37.9433 11.726 37.978 11.8257 37.978 11.947C37.978 12.1637 37.8263 12.363 37.523 12.545C37.211 12.727 36.8816 12.8657 36.535 12.961C36.1883 13.0477 35.8503 13.091 35.521 13.091C34.5416 13.091 33.766 12.8007 33.194 12.22C32.6306 11.6393 32.349 10.8377 32.349 9.815C32.349 9.165 32.4746 8.593 32.726 8.099C32.9773 7.59633 33.3283 7.20633 33.779 6.929C34.2383 6.65167 34.7583 6.513 35.339 6.513C36.1623 6.513 36.8166 6.78167 37.302 7.319C37.7873 7.85633 38.03 8.58433 38.03 9.503C38.03 9.67633 37.9953 9.802 37.926 9.88C37.8566 9.958 37.744 9.997 37.588 9.997H33.402C33.48 11.4877 34.1863 12.233 35.521 12.233C35.859 12.233 36.1493 12.1897 36.392 12.103C36.6346 12.0077 36.8946 11.882 37.172 11.726C37.3973 11.596 37.549 11.531 37.627 11.531ZM35.352 7.332C34.7973 7.332 34.351 7.50533 34.013 7.852C33.6836 8.19867 33.4886 8.68833 33.428 9.321H37.107C37.0896 8.67967 36.9293 8.19 36.626 7.852C36.3226 7.50533 35.898 7.332 35.352 7.332ZM48.289 8.294C48.8177 8.43267 49.225 8.69267 49.511 9.074C49.8057 9.45533 49.953 9.932 49.953 10.504C49.953 11.31 49.6887 11.9297 49.16 12.363C48.6313 12.7877 47.8817 13 46.911 13H43.635C43.4703 13 43.336 12.9523 43.232 12.857C43.1367 12.7617 43.089 12.636 43.089 12.48V4.355C43.089 4.199 43.1367 4.07333 43.232 3.978C43.336 3.88267 43.4703 3.835 43.635 3.835H46.768C47.7127 3.835 48.445 4.043 48.965 4.459C49.485 4.875 49.745 5.46433 49.745 6.227C49.745 6.721 49.615 7.14567 49.355 7.501C49.1037 7.85633 48.7483 8.12067 48.289 8.294ZM44.142 7.904H46.612C47.2967 7.904 47.8123 7.76533 48.159 7.488C48.5143 7.21067 48.692 6.80767 48.692 6.279C48.692 5.239 47.9987 4.719 46.612 4.719H44.142V7.904ZM46.807 12.116C47.5263 12.116 48.055 11.986 48.393 11.726C48.7397 11.4573 48.913 11.0413 48.913 10.478C48.913 9.35133 48.211 8.788 46.807 8.788H44.142V12.116H46.807ZM54.2798 6.513C55.8658 6.513 56.6588 7.345 56.6588 9.009V12.545C56.6588 12.701 56.6111 12.8267 56.5158 12.922C56.4291 13.0173 56.3078 13.065 56.1518 13.065C55.9958 13.065 55.8701 13.0173 55.7748 12.922C55.6794 12.8267 55.6318 12.701 55.6318 12.545V11.921C55.4671 12.2937 55.2158 12.584 54.8778 12.792C54.5398 12.9913 54.1498 13.091 53.7078 13.091C53.3004 13.091 52.9234 13.0087 52.5768 12.844C52.2388 12.6793 51.9701 12.4497 51.7708 12.155C51.5714 11.8603 51.4718 11.5353 51.4718 11.18C51.4718 10.7033 51.5931 10.335 51.8358 10.075C52.0784 9.80633 52.4771 9.61567 53.0318 9.503C53.5864 9.38167 54.3578 9.321 55.3458 9.321H55.6318V8.892C55.6318 8.372 55.5234 7.99067 55.3068 7.748C55.0988 7.50533 54.7564 7.384 54.2798 7.384C53.6904 7.384 53.0924 7.54433 52.4858 7.865C52.2518 8.01233 52.0871 8.086 51.9918 8.086C51.8878 8.086 51.8011 8.047 51.7318 7.969C51.6624 7.891 51.6278 7.79133 51.6278 7.67C51.6278 7.54867 51.6624 7.44467 51.7318 7.358C51.8098 7.26267 51.9311 7.16733 52.0958 7.072C52.3991 6.89867 52.7414 6.76433 53.1228 6.669C53.5128 6.565 53.8984 6.513 54.2798 6.513ZM53.8508 12.259C54.3708 12.259 54.7954 12.0857 55.1248 11.739C55.4628 11.3837 55.6318 10.9287 55.6318 10.374V9.997H55.3978C54.6351 9.997 54.0544 10.0317 53.6558 10.101C53.2571 10.1617 52.9711 10.27 52.7978 10.426C52.6331 10.5733 52.5508 10.7943 52.5508 11.089C52.5508 11.427 52.6721 11.7087 52.9148 11.934C53.1661 12.1507 53.4781 12.259 53.8508 12.259ZM61.7713 6.513C63.288 6.513 64.0463 7.34933 64.0463 9.022V12.545C64.0463 12.7097 63.9987 12.8397 63.9033 12.935C63.8167 13.0217 63.691 13.065 63.5263 13.065C63.3617 13.065 63.2317 13.0217 63.1363 12.935C63.041 12.8397 62.9933 12.7097 62.9933 12.545V9.087C62.9933 8.49767 62.8763 8.06867 62.6423 7.8C62.417 7.53133 62.053 7.397 61.5503 7.397C60.9697 7.397 60.506 7.57467 60.1593 7.93C59.8127 8.28533 59.6393 8.76633 59.6393 9.373V12.545C59.6393 12.7097 59.5917 12.8397 59.4963 12.935C59.4097 13.0217 59.284 13.065 59.1193 13.065C58.9547 13.065 58.8247 13.0217 58.7293 12.935C58.634 12.8397 58.5863 12.7097 58.5863 12.545V7.059C58.5863 6.903 58.634 6.77733 58.7293 6.682C58.8247 6.58667 58.9547 6.539 59.1193 6.539C59.2753 6.539 59.3967 6.58667 59.4833 6.682C59.5787 6.77733 59.6263 6.89867 59.6263 7.046V7.709C59.8343 7.319 60.1247 7.02433 60.4973 6.825C60.87 6.617 61.2947 6.513 61.7713 6.513ZM71.032 12.168C71.1707 12.298 71.24 12.4367 71.24 12.584C71.24 12.714 71.1923 12.8267 71.097 12.922C71.0103 13.0173 70.902 13.065 70.772 13.065C70.6593 13.065 70.5423 13.013 70.421 12.909L67.028 9.984V12.545C67.028 12.7097 66.976 12.8397 66.872 12.935C66.7767 13.0217 66.6553 13.065 66.508 13.065C66.352 13.065 66.222 13.0217 66.118 12.935C66.0227 12.8397 65.975 12.7097 65.975 12.545V4.29C65.975 4.12533 66.0227 3.99967 66.118 3.913C66.222 3.81767 66.352 3.77 66.508 3.77C66.6553 3.77 66.7767 3.81767 66.872 3.913C66.976 3.99967 67.028 4.12533 67.028 4.29V9.568L70.135 6.721C70.239 6.617 70.356 6.565 70.486 6.565C70.616 6.565 70.7287 6.61267 70.824 6.708C70.9193 6.80333 70.967 6.916 70.967 7.046C70.967 7.19333 70.9063 7.32333 70.785 7.436L68.224 9.724L71.032 12.168ZM73.008 13.065C72.852 13.065 72.722 13.0217 72.618 12.935C72.5227 12.8397 72.475 12.7097 72.475 12.545V7.059C72.475 6.89433 72.5227 6.76867 72.618 6.682C72.722 6.58667 72.852 6.539 73.008 6.539C73.164 6.539 73.2897 6.58667 73.385 6.682C73.4803 6.76867 73.528 6.89433 73.528 7.059V12.545C73.528 12.7183 73.4803 12.8483 73.385 12.935C73.2897 13.0217 73.164 13.065 73.008 13.065ZM73.008 5.174C72.8 5.174 72.631 5.11333 72.501 4.992C72.371 4.87067 72.306 4.71033 72.306 4.511C72.306 4.32033 72.371 4.16433 72.501 4.043C72.631 3.92167 72.8 3.861 73.008 3.861C73.216 3.861 73.385 3.92167 73.515 4.043C73.645 4.16433 73.71 4.32033 73.71 4.511C73.71 4.71033 73.645 4.87067 73.515 4.992C73.385 5.11333 73.216 5.174 73.008 5.174ZM78.6815 6.513C80.1982 6.513 80.9565 7.34933 80.9565 9.022V12.545C80.9565 12.7097 80.9088 12.8397 80.8135 12.935C80.7268 13.0217 80.6012 13.065 80.4365 13.065C80.2718 13.065 80.1418 13.0217 80.0465 12.935C79.9512 12.8397 79.9035 12.7097 79.9035 12.545V9.087C79.9035 8.49767 79.7865 8.06867 79.5525 7.8C79.3272 7.53133 78.9632 7.397 78.4605 7.397C77.8798 7.397 77.4162 7.57467 77.0695 7.93C76.7228 8.28533 76.5495 8.76633 76.5495 9.373V12.545C76.5495 12.7097 76.5018 12.8397 76.4065 12.935C76.3198 13.0217 76.1942 13.065 76.0295 13.065C75.8648 13.065 75.7348 13.0217 75.6395 12.935C75.5442 12.8397 75.4965 12.7097 75.4965 12.545V7.059C75.4965 6.903 75.5442 6.77733 75.6395 6.682C75.7348 6.58667 75.8648 6.539 76.0295 6.539C76.1855 6.539 76.3068 6.58667 76.3935 6.682C76.4888 6.77733 76.5365 6.89867 76.5365 7.046V7.709C76.7445 7.319 77.0348 7.02433 77.4075 6.825C77.7802 6.617 78.2048 6.513 78.6815 6.513ZM88.0202 6.539C88.1848 6.539 88.3148 6.58667 88.4102 6.682C88.5055 6.77733 88.5532 6.903 88.5532 7.059V12.571C88.5532 13.5157 88.3105 14.2263 87.8252 14.703C87.3398 15.1883 86.6205 15.431 85.6672 15.431C84.7398 15.431 83.9685 15.249 83.3532 14.885C83.0412 14.7117 82.8852 14.5123 82.8852 14.287C82.8852 14.1657 82.9155 14.066 82.9762 13.988C83.0455 13.91 83.1322 13.871 83.2362 13.871C83.3228 13.871 83.4788 13.9317 83.7042 14.053C84.0075 14.209 84.3065 14.3347 84.6012 14.43C84.8958 14.5253 85.2468 14.573 85.6542 14.573C86.2695 14.573 86.7332 14.4083 87.0452 14.079C87.3572 13.7583 87.5132 13.286 87.5132 12.662V11.544C87.3312 11.9513 87.0495 12.2633 86.6682 12.48C86.2955 12.6967 85.8535 12.805 85.3422 12.805C84.7875 12.805 84.2935 12.675 83.8602 12.415C83.4355 12.155 83.1018 11.7867 82.8592 11.31C82.6252 10.8333 82.5082 10.283 82.5082 9.659C82.5082 9.035 82.6252 8.48467 82.8592 8.008C83.1018 7.53133 83.4355 7.163 83.8602 6.903C84.2935 6.643 84.7875 6.513 85.3422 6.513C85.8448 6.513 86.2825 6.62133 86.6552 6.838C87.0278 7.05467 87.3095 7.36233 87.5002 7.761V7.059C87.5002 6.903 87.5435 6.77733 87.6302 6.682C87.7255 6.58667 87.8555 6.539 88.0202 6.539ZM85.5502 11.934C86.1568 11.934 86.6335 11.7347 86.9802 11.336C87.3268 10.9287 87.5002 10.3697 87.5002 9.659C87.5002 8.957 87.3268 8.40667 86.9802 8.008C86.6422 7.60067 86.1655 7.397 85.5502 7.397C84.9348 7.397 84.4495 7.60067 84.0942 8.008C83.7475 8.40667 83.5742 8.957 83.5742 9.659C83.5742 10.3697 83.7475 10.9287 84.0942 11.336C84.4495 11.7347 84.9348 11.934 85.5502 11.934Z" fill="white"/>
<path d="M4.795 20.769C4.809 20.797 4.816 20.825 4.816 20.853C4.816 20.9043 4.795 20.9487 4.753 20.986C4.711 21.0187 4.662 21.035 4.606 21.035C4.56867 21.035 4.53133 21.0233 4.494 21C4.46133 20.9767 4.43567 20.944 4.417 20.902L3.885 19.684H1.169L0.63 20.902C0.588 20.9907 0.522667 21.035 0.434 21.035C0.378 21.035 0.329 21.0187 0.287 20.986C0.249667 20.9487 0.231 20.902 0.231 20.846C0.231 20.8133 0.235667 20.7877 0.245 20.769L2.289 16.177C2.331 16.0743 2.408 16.023 2.52 16.023C2.57133 16.023 2.618 16.037 2.66 16.065C2.70667 16.093 2.73933 16.1303 2.758 16.177L4.795 20.769ZM1.33 19.306H3.717L2.527 16.597L1.33 19.306ZM6.24209 21.035C6.17675 21.035 6.12309 21.0163 6.08109 20.979C6.04375 20.937 6.02509 20.881 6.02509 20.811V16.282C6.02509 16.2213 6.04609 16.17 6.08809 16.128C6.13475 16.086 6.19075 16.065 6.25609 16.065H7.89409C8.40742 16.065 8.80409 16.1887 9.08409 16.436C9.36875 16.6833 9.51109 17.0333 9.51109 17.486C9.51109 17.9433 9.36875 18.298 9.08409 18.55C8.79942 18.7973 8.40275 18.921 7.89409 18.921H6.45909V20.811C6.45909 20.881 6.43809 20.937 6.39609 20.979C6.35875 21.0163 6.30742 21.035 6.24209 21.035ZM7.86609 18.55C8.67342 18.55 9.07709 18.1953 9.07709 17.486C9.07709 16.786 8.67342 16.436 7.86609 16.436H6.45909V18.55H7.86609ZM11.056 21.035C10.9906 21.035 10.937 21.0163 10.895 20.979C10.8576 20.937 10.839 20.881 10.839 20.811V16.282C10.839 16.2213 10.86 16.17 10.902 16.128C10.9486 16.086 11.0046 16.065 11.07 16.065H12.708C13.2213 16.065 13.618 16.1887 13.898 16.436C14.1826 16.6833 14.325 17.0333 14.325 17.486C14.325 17.9433 14.1826 18.298 13.898 18.55C13.6133 18.7973 13.2166 18.921 12.708 18.921H11.273V20.811C11.273 20.881 11.252 20.937 11.21 20.979C11.1726 21.0163 11.1213 21.035 11.056 21.035ZM12.68 18.55C13.4873 18.55 13.891 18.1953 13.891 17.486C13.891 16.786 13.4873 16.436 12.68 16.436H11.273V18.55H12.68ZM15.8768 21C15.8162 21 15.7625 20.9813 15.7158 20.944C15.6738 20.9067 15.6528 20.86 15.6528 20.804V16.254C15.6528 16.1887 15.6715 16.135 15.7088 16.093C15.7508 16.051 15.8045 16.03 15.8698 16.03C15.9398 16.03 15.9935 16.051 16.0308 16.093C16.0682 16.1303 16.0868 16.184 16.0868 16.254V20.622H18.4808C18.5415 20.622 18.5882 20.6383 18.6208 20.671C18.6582 20.7037 18.6768 20.7503 18.6768 20.811C18.6768 20.8717 18.6582 20.9183 18.6208 20.951C18.5882 20.9837 18.5415 21 18.4808 21H15.8768ZM19.9522 21.035C19.8869 21.035 19.8332 21.014 19.7912 20.972C19.7539 20.93 19.7352 20.8763 19.7352 20.811V16.254C19.7352 16.1887 19.7539 16.135 19.7912 16.093C19.8332 16.051 19.8869 16.03 19.9522 16.03C20.0176 16.03 20.0689 16.051 20.1062 16.093C20.1482 16.135 20.1692 16.1887 20.1692 16.254V20.811C20.1692 20.8763 20.1482 20.93 20.1062 20.972C20.0689 21.014 20.0176 21.035 19.9522 21.035ZM23.8452 21.056C23.3879 21.056 22.9889 20.9557 22.6482 20.755C22.3122 20.5497 22.0532 20.258 21.8712 19.88C21.6939 19.4973 21.6052 19.047 21.6052 18.529C21.6052 18.011 21.6939 17.563 21.8712 17.185C22.0532 16.807 22.3122 16.5177 22.6482 16.317C22.9889 16.1117 23.3879 16.009 23.8452 16.009C24.1579 16.009 24.4542 16.0627 24.7342 16.17C25.0189 16.2727 25.2592 16.422 25.4552 16.618C25.5206 16.6787 25.5532 16.7463 25.5532 16.821C25.5532 16.8723 25.5369 16.9167 25.5042 16.954C25.4762 16.9913 25.4436 17.01 25.4062 17.01C25.3596 17.01 25.3059 16.9867 25.2452 16.94C24.9932 16.7347 24.7646 16.5923 24.5592 16.513C24.3539 16.4337 24.1136 16.394 23.8382 16.394C23.2736 16.394 22.8349 16.5807 22.5222 16.954C22.2142 17.3273 22.0602 17.8523 22.0602 18.529C22.0602 19.2103 22.2142 19.7377 22.5222 20.111C22.8349 20.4843 23.2736 20.671 23.8382 20.671C24.1136 20.671 24.3539 20.6313 24.5592 20.552C24.7646 20.4727 24.9932 20.3303 25.2452 20.125C25.3152 20.0783 25.3689 20.055 25.4062 20.055C25.4436 20.055 25.4762 20.0737 25.5042 20.111C25.5369 20.1483 25.5532 20.1927 25.5532 20.244C25.5532 20.3187 25.5206 20.3863 25.4552 20.447C25.2592 20.643 25.0189 20.7947 24.7342 20.902C24.4542 21.0047 24.1579 21.056 23.8452 21.056ZM30.9096 20.769C30.9236 20.797 30.9306 20.825 30.9306 20.853C30.9306 20.9043 30.9096 20.9487 30.8676 20.986C30.8256 21.0187 30.7766 21.035 30.7206 21.035C30.6833 21.035 30.646 21.0233 30.6086 21C30.576 20.9767 30.5503 20.944 30.5316 20.902L29.9996 19.684H27.2836L26.7446 20.902C26.7026 20.9907 26.6373 21.035 26.5486 21.035C26.4926 21.035 26.4436 21.0187 26.4016 20.986C26.3643 20.9487 26.3456 20.902 26.3456 20.846C26.3456 20.8133 26.3503 20.7877 26.3596 20.769L28.4036 16.177C28.4456 16.0743 28.5226 16.023 28.6346 16.023C28.686 16.023 28.7326 16.037 28.7746 16.065C28.8213 16.093 28.854 16.1303 28.8726 16.177L30.9096 20.769ZM27.4446 19.306H29.8316L28.6416 16.597L27.4446 19.306ZM33.0004 21.035C32.935 21.035 32.8837 21.014 32.8464 20.972C32.809 20.93 32.7904 20.8763 32.7904 20.811V16.443H31.1734C31.1127 16.443 31.0637 16.4267 31.0264 16.394C30.9937 16.3613 30.9774 16.3147 30.9774 16.254C30.9774 16.1933 30.9937 16.1467 31.0264 16.114C31.0637 16.0813 31.1127 16.065 31.1734 16.065H34.8274C34.8834 16.065 34.93 16.0837 34.9674 16.121C35.0047 16.1537 35.0234 16.198 35.0234 16.254C35.0234 16.31 35.0047 16.3567 34.9674 16.394C34.93 16.4267 34.8834 16.443 34.8274 16.443H33.2174V20.811C33.2174 20.8763 33.1964 20.93 33.1544 20.972C33.117 21.014 33.0657 21.035 33.0004 21.035ZM36.2683 21.035C36.2029 21.035 36.1493 21.014 36.1073 20.972C36.0699 20.93 36.0513 20.8763 36.0513 20.811V16.254C36.0513 16.1887 36.0699 16.135 36.1073 16.093C36.1493 16.051 36.2029 16.03 36.2683 16.03C36.3336 16.03 36.3849 16.051 36.4223 16.093C36.4643 16.135 36.4853 16.1887 36.4853 16.254V20.811C36.4853 20.8763 36.4643 20.93 36.4223 20.972C36.3849 21.014 36.3336 21.035 36.2683 21.035ZM40.1192 21.056C39.6712 21.056 39.2816 20.9557 38.9502 20.755C38.6189 20.5497 38.3646 20.258 38.1872 19.88C38.0099 19.4973 37.9212 19.0493 37.9212 18.536C37.9212 18.018 38.0099 17.57 38.1872 17.192C38.3646 16.8093 38.6166 16.5177 38.9432 16.317C39.2746 16.1117 39.6666 16.009 40.1192 16.009C40.5719 16.009 40.9639 16.1117 41.2952 16.317C41.6266 16.5177 41.8809 16.807 42.0582 17.185C42.2356 17.563 42.3242 18.011 42.3242 18.529C42.3242 19.047 42.2356 19.4973 42.0582 19.88C41.8809 20.258 41.6266 20.5497 41.2952 20.755C40.9639 20.9557 40.5719 21.056 40.1192 21.056ZM40.1192 20.671C40.6746 20.671 41.1062 20.4843 41.4142 20.111C41.7222 19.7377 41.8762 19.2103 41.8762 18.529C41.8762 17.8477 41.7222 17.3227 41.4142 16.954C41.1109 16.5807 40.6792 16.394 40.1192 16.394C39.5639 16.394 39.1322 16.5807 38.8242 16.954C38.5209 17.3273 38.3692 17.8523 38.3692 18.529C38.3692 19.2057 38.5209 19.733 38.8242 20.111C39.1322 20.4843 39.5639 20.671 40.1192 20.671ZM47.4261 16.03C47.4914 16.03 47.5404 16.051 47.5731 16.093C47.6104 16.1303 47.6291 16.184 47.6291 16.254V20.811C47.6291 20.8763 47.6104 20.93 47.5731 20.972C47.5358 21.014 47.4844 21.035 47.4191 21.035C47.3491 21.035 47.2861 21 47.2301 20.93L44.1641 16.793V20.811C44.1641 20.8763 44.1454 20.93 44.1081 20.972C44.0708 21.014 44.0218 21.035 43.9611 21.035C43.8911 21.035 43.8398 21.0163 43.8071 20.979C43.7744 20.937 43.7581 20.881 43.7581 20.811V16.254C43.7581 16.1887 43.7768 16.135 43.8141 16.093C43.8561 16.051 43.9121 16.03 43.9821 16.03C44.0568 16.03 44.1174 16.065 44.1641 16.135L47.2231 20.265V16.254C47.2231 16.1887 47.2418 16.135 47.2791 16.093C47.3164 16.051 47.3654 16.03 47.4261 16.03Z" fill="white" fill-opacity="0.85"/>
<g clip-path="url(#clip0)">
<path d="M105.647 5.06367C104.919 4.7459 104.192 4.625 103.464 4.625C101.155 4.6248 98.8454 5.84258 96.5359 5.84258C95.9567 5.84258 95.3779 5.76602 94.7987 5.57461C94.7337 5.55312 94.6684 5.54297 94.6047 5.54297C94.282 5.54297 94 5.80312 94 6.16426V12.3607C94 12.6074 94.1356 12.8412 94.3532 12.9361C95.0806 13.2541 95.8084 13.375 96.5359 13.375C98.8454 13.375 101.155 12.1572 103.464 12.1572C104.043 12.1572 104.622 12.2338 105.201 12.4252C105.266 12.4467 105.332 12.4568 105.395 12.4568C105.718 12.4568 106 12.1967 106 11.8355V5.63926C106 5.39238 105.864 5.15879 105.647 5.06367V5.06367ZM94.9 6.58242C95.2772 6.68086 95.671 6.73027 96.076 6.75684C95.9657 7.33086 95.4812 7.76348 94.9 7.76348V6.58242ZM94.9 12.1488V11.2156C95.5444 11.2156 96.0659 11.7482 96.0946 12.4148C95.6721 12.3795 95.2772 12.2916 94.9 12.1488V12.1488ZM100 10.875C99.1714 10.875 98.5 10.0354 98.5 9C98.5 7.96445 99.1716 7.125 100 7.125C100.828 7.125 101.5 7.96445 101.5 9C101.5 10.0357 100.828 10.875 100 10.875ZM105.1 11.4176C104.771 11.3318 104.43 11.2838 104.081 11.2527C104.192 10.7434 104.597 10.3566 105.1 10.2902V11.4176ZM105.1 6.80605C104.521 6.72969 104.071 6.22598 104.054 5.60391C104.42 5.64629 104.768 5.72559 105.1 5.85117V6.80605Z" fill="white"/>
</g>
<defs>
<clipPath id="clip0">
<rect width="12" height="10" fill="white" transform="translate(94 4)"/>
</clipPath>
</defs>
</svg>
